<mxfile host="app.diagrams.net" modified="2021-10-01T20:14:39.746Z" agent="5.0 (Windows NT 10.0; Win64; x64) AppleWebKit/537.36 (KHTML, like Gecko) Chrome/94.0.4606.61 Safari/537.36 Edg/94.0.992.31" etag="Lz1Apyrtp5v-F6G2F6hZ" version="15.3.5" type="github">
  <diagram id="3OviOlaB_IsA5EM_G6WI" name="Page-1">
    <mxGraphModel dx="1017" dy="927" grid="1" gridSize="10" guides="1" tooltips="1" connect="1" arrows="1" fold="1" page="1" pageScale="1" pageWidth="850" pageHeight="1100" math="0" shadow="0">
      <root>
        <mxCell id="0" />
        <mxCell id="1" parent="0" />
        <mxCell id="8xo9oSfGQhORBLVSTEod-1" value="Calendar Viewer" style="swimlane;" vertex="1" parent="1">
          <mxGeometry x="170" y="70" width="450" height="960" as="geometry" />
        </mxCell>
        <mxCell id="8xo9oSfGQhORBLVSTEod-2" style="edgeStyle=orthogonalEdgeStyle;rounded=0;orthogonalLoop=1;jettySize=auto;html=1;exitX=0.5;exitY=1;exitDx=0;exitDy=0;entryX=0.5;entryY=0;entryDx=0;entryDy=0;endArrow=classic;endFill=1;" edge="1" parent="8xo9oSfGQhORBLVSTEod-1" source="8xo9oSfGQhORBLVSTEod-3" target="8xo9oSfGQhORBLVSTEod-4">
          <mxGeometry relative="1" as="geometry" />
        </mxCell>
        <mxCell id="8xo9oSfGQhORBLVSTEod-3" value="" style="ellipse;whiteSpace=wrap;html=1;rounded=0;shadow=0;comic=0;labelBackgroundColor=none;strokeWidth=1;fillColor=#000000;fontFamily=Verdana;fontSize=12;align=center;" vertex="1" parent="8xo9oSfGQhORBLVSTEod-1">
          <mxGeometry x="210" y="30" width="40" height="40" as="geometry" />
        </mxCell>
        <mxCell id="8xo9oSfGQhORBLVSTEod-33" style="edgeStyle=none;curved=1;rounded=0;orthogonalLoop=1;jettySize=auto;html=1;exitX=0.5;exitY=1;exitDx=0;exitDy=0;entryX=0.5;entryY=0;entryDx=0;entryDy=0;endArrow=classic;startSize=6;endSize=6;sourcePerimeterSpacing=1;targetPerimeterSpacing=1;endFill=1;" edge="1" parent="8xo9oSfGQhORBLVSTEod-1" source="8xo9oSfGQhORBLVSTEod-4" target="8xo9oSfGQhORBLVSTEod-32">
          <mxGeometry relative="1" as="geometry" />
        </mxCell>
        <mxCell id="8xo9oSfGQhORBLVSTEod-4" value="User opens calendar" style="rounded=1;whiteSpace=wrap;html=1;shadow=0;comic=0;labelBackgroundColor=none;strokeWidth=1;fontFamily=Verdana;fontSize=12;align=center;arcSize=50;" vertex="1" parent="8xo9oSfGQhORBLVSTEod-1">
          <mxGeometry x="180" y="110" width="100" height="30" as="geometry" />
        </mxCell>
        <mxCell id="8xo9oSfGQhORBLVSTEod-32" value="Synchronize Events" style="rounded=1;whiteSpace=wrap;html=1;shadow=0;comic=0;labelBackgroundColor=none;strokeWidth=1;fontFamily=Verdana;fontSize=12;align=center;arcSize=50;" vertex="1" parent="8xo9oSfGQhORBLVSTEod-1">
          <mxGeometry x="180" y="180" width="100" height="30" as="geometry" />
        </mxCell>
        <mxCell id="8xo9oSfGQhORBLVSTEod-37" style="edgeStyle=orthogonalEdgeStyle;rounded=0;orthogonalLoop=1;jettySize=auto;html=1;exitX=0;exitY=0.5;exitDx=0;exitDy=0;entryX=0.5;entryY=0;entryDx=0;entryDy=0;endArrow=classic;endFill=1;startSize=6;endSize=6;sourcePerimeterSpacing=1;targetPerimeterSpacing=1;" edge="1" parent="8xo9oSfGQhORBLVSTEod-1" source="8xo9oSfGQhORBLVSTEod-35" target="8xo9oSfGQhORBLVSTEod-36">
          <mxGeometry relative="1" as="geometry" />
        </mxCell>
        <mxCell id="8xo9oSfGQhORBLVSTEod-38" value="No" style="edgeLabel;html=1;align=center;verticalAlign=middle;resizable=0;points=[];" vertex="1" connectable="0" parent="8xo9oSfGQhORBLVSTEod-37">
          <mxGeometry x="-0.2943" y="-2" relative="1" as="geometry">
            <mxPoint as="offset" />
          </mxGeometry>
        </mxCell>
        <mxCell id="8xo9oSfGQhORBLVSTEod-49" style="edgeStyle=orthogonalEdgeStyle;rounded=0;orthogonalLoop=1;jettySize=auto;html=1;exitX=0.5;exitY=1;exitDx=0;exitDy=0;entryX=0.5;entryY=0;entryDx=0;entryDy=0;endArrow=classic;endFill=1;startSize=6;endSize=6;sourcePerimeterSpacing=1;targetPerimeterSpacing=1;" edge="1" parent="8xo9oSfGQhORBLVSTEod-1" source="8xo9oSfGQhORBLVSTEod-35" target="8xo9oSfGQhORBLVSTEod-39">
          <mxGeometry relative="1" as="geometry" />
        </mxCell>
        <mxCell id="8xo9oSfGQhORBLVSTEod-35" value="Sync successful?" style="rhombus;whiteSpace=wrap;html=1;hachureGap=4;pointerEvents=0;" vertex="1" parent="8xo9oSfGQhORBLVSTEod-1">
          <mxGeometry x="190.00238095238097" y="250" width="80" height="80" as="geometry" />
        </mxCell>
        <mxCell id="8xo9oSfGQhORBLVSTEod-34" style="edgeStyle=none;curved=1;rounded=0;orthogonalLoop=1;jettySize=auto;html=1;exitX=0.5;exitY=1;exitDx=0;exitDy=0;endArrow=classic;endFill=1;startSize=6;endSize=6;sourcePerimeterSpacing=1;targetPerimeterSpacing=1;" edge="1" parent="8xo9oSfGQhORBLVSTEod-1" source="8xo9oSfGQhORBLVSTEod-32" target="8xo9oSfGQhORBLVSTEod-35">
          <mxGeometry relative="1" as="geometry">
            <mxPoint x="229.95238095238096" y="240" as="targetPoint" />
          </mxGeometry>
        </mxCell>
        <mxCell id="8xo9oSfGQhORBLVSTEod-48" style="edgeStyle=orthogonalEdgeStyle;rounded=0;orthogonalLoop=1;jettySize=auto;html=1;exitX=0.5;exitY=1;exitDx=0;exitDy=0;entryX=0;entryY=0.5;entryDx=0;entryDy=0;endArrow=classic;endFill=1;startSize=6;endSize=6;sourcePerimeterSpacing=1;targetPerimeterSpacing=1;" edge="1" parent="8xo9oSfGQhORBLVSTEod-1" source="8xo9oSfGQhORBLVSTEod-36" target="8xo9oSfGQhORBLVSTEod-39">
          <mxGeometry relative="1" as="geometry" />
        </mxCell>
        <mxCell id="8xo9oSfGQhORBLVSTEod-36" value="Display an error message" style="rounded=1;whiteSpace=wrap;html=1;shadow=0;comic=0;labelBackgroundColor=none;strokeWidth=1;fontFamily=Verdana;fontSize=12;align=center;arcSize=50;" vertex="1" parent="8xo9oSfGQhORBLVSTEod-1">
          <mxGeometry x="80" y="320" width="100" height="30" as="geometry" />
        </mxCell>
        <mxCell id="8xo9oSfGQhORBLVSTEod-50" style="edgeStyle=orthogonalEdgeStyle;rounded=0;orthogonalLoop=1;jettySize=auto;html=1;exitX=0.5;exitY=1;exitDx=0;exitDy=0;entryX=0.5;entryY=0;entryDx=0;entryDy=0;endArrow=classic;endFill=1;startSize=6;endSize=6;sourcePerimeterSpacing=1;targetPerimeterSpacing=1;" edge="1" parent="8xo9oSfGQhORBLVSTEod-1" source="8xo9oSfGQhORBLVSTEod-39" target="8xo9oSfGQhORBLVSTEod-41">
          <mxGeometry relative="1" as="geometry" />
        </mxCell>
        <mxCell id="8xo9oSfGQhORBLVSTEod-39" value="User clicks button" style="rounded=1;whiteSpace=wrap;html=1;shadow=0;comic=0;labelBackgroundColor=none;strokeWidth=1;fontFamily=Verdana;fontSize=12;align=center;arcSize=50;" vertex="1" parent="8xo9oSfGQhORBLVSTEod-1">
          <mxGeometry x="180" y="370" width="100" height="30" as="geometry" />
        </mxCell>
        <mxCell id="8xo9oSfGQhORBLVSTEod-42" style="edgeStyle=orthogonalEdgeStyle;rounded=0;orthogonalLoop=1;jettySize=auto;html=1;exitX=1;exitY=0.5;exitDx=0;exitDy=0;entryX=1;entryY=0.5;entryDx=0;entryDy=0;endArrow=classic;endFill=1;startSize=6;endSize=6;sourcePerimeterSpacing=1;targetPerimeterSpacing=1;" edge="1" parent="8xo9oSfGQhORBLVSTEod-1" source="8xo9oSfGQhORBLVSTEod-41" target="8xo9oSfGQhORBLVSTEod-32">
          <mxGeometry relative="1" as="geometry">
            <Array as="points">
              <mxPoint x="320" y="460" />
              <mxPoint x="320" y="195" />
            </Array>
          </mxGeometry>
        </mxCell>
        <mxCell id="8xo9oSfGQhORBLVSTEod-43" value="Yes" style="edgeLabel;html=1;align=center;verticalAlign=middle;resizable=0;points=[];" vertex="1" connectable="0" parent="8xo9oSfGQhORBLVSTEod-42">
          <mxGeometry x="-0.8044" y="1" relative="1" as="geometry">
            <mxPoint as="offset" />
          </mxGeometry>
        </mxCell>
        <mxCell id="8xo9oSfGQhORBLVSTEod-51" style="edgeStyle=orthogonalEdgeStyle;rounded=0;orthogonalLoop=1;jettySize=auto;html=1;exitX=0.5;exitY=1;exitDx=0;exitDy=0;entryX=0.5;entryY=0;entryDx=0;entryDy=0;endArrow=classic;endFill=1;startSize=6;endSize=6;sourcePerimeterSpacing=1;targetPerimeterSpacing=1;" edge="1" parent="8xo9oSfGQhORBLVSTEod-1" source="8xo9oSfGQhORBLVSTEod-41" target="8xo9oSfGQhORBLVSTEod-44">
          <mxGeometry relative="1" as="geometry" />
        </mxCell>
        <mxCell id="8xo9oSfGQhORBLVSTEod-41" value="Was it the refresh button?" style="rhombus;whiteSpace=wrap;html=1;hachureGap=4;pointerEvents=0;" vertex="1" parent="8xo9oSfGQhORBLVSTEod-1">
          <mxGeometry x="190.00238095238097" y="420" width="80" height="80" as="geometry" />
        </mxCell>
        <mxCell id="8xo9oSfGQhORBLVSTEod-46" style="edgeStyle=orthogonalEdgeStyle;rounded=0;orthogonalLoop=1;jettySize=auto;html=1;exitX=1;exitY=0.5;exitDx=0;exitDy=0;entryX=1;entryY=0.5;entryDx=0;entryDy=0;endArrow=classic;endFill=1;startSize=6;endSize=6;sourcePerimeterSpacing=1;targetPerimeterSpacing=1;" edge="1" parent="8xo9oSfGQhORBLVSTEod-1" source="8xo9oSfGQhORBLVSTEod-44" target="8xo9oSfGQhORBLVSTEod-32">
          <mxGeometry relative="1" as="geometry">
            <Array as="points">
              <mxPoint x="320" y="570" />
              <mxPoint x="320" y="195" />
            </Array>
          </mxGeometry>
        </mxCell>
        <mxCell id="8xo9oSfGQhORBLVSTEod-55" value="Yes" style="edgeLabel;html=1;align=center;verticalAlign=middle;resizable=0;points=[];" vertex="1" connectable="0" parent="8xo9oSfGQhORBLVSTEod-46">
          <mxGeometry x="-0.8118" y="2" relative="1" as="geometry">
            <mxPoint x="-4" y="2" as="offset" />
          </mxGeometry>
        </mxCell>
        <mxCell id="8xo9oSfGQhORBLVSTEod-52" style="edgeStyle=orthogonalEdgeStyle;rounded=0;orthogonalLoop=1;jettySize=auto;html=1;exitX=0.5;exitY=1;exitDx=0;exitDy=0;entryX=0.5;entryY=0;entryDx=0;entryDy=0;endArrow=classic;endFill=1;startSize=6;endSize=6;sourcePerimeterSpacing=1;targetPerimeterSpacing=1;" edge="1" parent="8xo9oSfGQhORBLVSTEod-1" source="8xo9oSfGQhORBLVSTEod-44" target="8xo9oSfGQhORBLVSTEod-45">
          <mxGeometry relative="1" as="geometry" />
        </mxCell>
        <mxCell id="8xo9oSfGQhORBLVSTEod-44" value="Was it the next week button?" style="rhombus;whiteSpace=wrap;html=1;hachureGap=4;pointerEvents=0;" vertex="1" parent="8xo9oSfGQhORBLVSTEod-1">
          <mxGeometry x="190.00238095238097" y="530" width="80" height="80" as="geometry" />
        </mxCell>
        <mxCell id="8xo9oSfGQhORBLVSTEod-58" style="edgeStyle=orthogonalEdgeStyle;rounded=0;orthogonalLoop=1;jettySize=auto;html=1;exitX=1;exitY=0.5;exitDx=0;exitDy=0;entryX=1;entryY=0.5;entryDx=0;entryDy=0;endArrow=classic;endFill=1;startSize=6;endSize=6;sourcePerimeterSpacing=1;targetPerimeterSpacing=1;" edge="1" parent="8xo9oSfGQhORBLVSTEod-1" source="8xo9oSfGQhORBLVSTEod-45" target="8xo9oSfGQhORBLVSTEod-32">
          <mxGeometry relative="1" as="geometry">
            <Array as="points">
              <mxPoint x="320" y="680" />
              <mxPoint x="320" y="195" />
            </Array>
          </mxGeometry>
        </mxCell>
        <mxCell id="8xo9oSfGQhORBLVSTEod-72" style="edgeStyle=orthogonalEdgeStyle;rounded=0;orthogonalLoop=1;jettySize=auto;html=1;exitX=0.5;exitY=1;exitDx=0;exitDy=0;entryX=0.499;entryY=-0.048;entryDx=0;entryDy=0;entryPerimeter=0;endArrow=classic;endFill=1;startSize=6;endSize=6;sourcePerimeterSpacing=1;targetPerimeterSpacing=1;" edge="1" parent="8xo9oSfGQhORBLVSTEod-1" source="8xo9oSfGQhORBLVSTEod-45" target="8xo9oSfGQhORBLVSTEod-54">
          <mxGeometry relative="1" as="geometry" />
        </mxCell>
        <mxCell id="8xo9oSfGQhORBLVSTEod-45" value="Was it the previous week button?" style="rhombus;whiteSpace=wrap;html=1;hachureGap=4;pointerEvents=0;" vertex="1" parent="8xo9oSfGQhORBLVSTEod-1">
          <mxGeometry x="190.00238095238097" y="640" width="80" height="80" as="geometry" />
        </mxCell>
        <mxCell id="8xo9oSfGQhORBLVSTEod-47" value="Time Period To Sync" style="rounded=0;whiteSpace=wrap;html=1;shadow=0;comic=0;labelBackgroundColor=none;strokeWidth=1;fontFamily=Verdana;fontSize=12;align=center;arcSize=50;" vertex="1" parent="8xo9oSfGQhORBLVSTEod-1">
          <mxGeometry x="350" y="340" width="80" height="30" as="geometry" />
        </mxCell>
        <mxCell id="8xo9oSfGQhORBLVSTEod-76" style="edgeStyle=orthogonalEdgeStyle;rounded=0;orthogonalLoop=1;jettySize=auto;html=1;exitX=0.5;exitY=1;exitDx=0;exitDy=0;entryX=0.5;entryY=0;entryDx=0;entryDy=0;endArrow=classic;endFill=1;startSize=6;endSize=6;sourcePerimeterSpacing=1;targetPerimeterSpacing=1;" edge="1" parent="8xo9oSfGQhORBLVSTEod-1" source="8xo9oSfGQhORBLVSTEod-53" target="8xo9oSfGQhORBLVSTEod-75">
          <mxGeometry relative="1" as="geometry" />
        </mxCell>
        <mxCell id="8xo9oSfGQhORBLVSTEod-53" value="Display Event Details View" style="rounded=1;whiteSpace=wrap;html=1;shadow=0;comic=0;labelBackgroundColor=none;strokeWidth=1;fontFamily=Verdana;fontSize=12;align=center;arcSize=50;" vertex="1" parent="8xo9oSfGQhORBLVSTEod-1">
          <mxGeometry x="290" y="860" width="100" height="30" as="geometry" />
        </mxCell>
        <mxCell id="8xo9oSfGQhORBLVSTEod-66" style="edgeStyle=orthogonalEdgeStyle;rounded=0;orthogonalLoop=1;jettySize=auto;html=1;exitX=1;exitY=0.5;exitDx=0;exitDy=0;endArrow=classic;endFill=1;startSize=6;endSize=6;sourcePerimeterSpacing=1;targetPerimeterSpacing=1;" edge="1" parent="8xo9oSfGQhORBLVSTEod-1" source="8xo9oSfGQhORBLVSTEod-54" target="8xo9oSfGQhORBLVSTEod-53">
          <mxGeometry relative="1" as="geometry" />
        </mxCell>
        <mxCell id="8xo9oSfGQhORBLVSTEod-67" value="Yes" style="edgeLabel;html=1;align=center;verticalAlign=middle;resizable=0;points=[];" vertex="1" connectable="0" parent="8xo9oSfGQhORBLVSTEod-66">
          <mxGeometry x="-0.295" relative="1" as="geometry">
            <mxPoint as="offset" />
          </mxGeometry>
        </mxCell>
        <mxCell id="8xo9oSfGQhORBLVSTEod-54" value="Was it an event?" style="rhombus;whiteSpace=wrap;html=1;hachureGap=4;pointerEvents=0;" vertex="1" parent="8xo9oSfGQhORBLVSTEod-1">
          <mxGeometry x="190.00238095238097" y="750" width="80" height="80" as="geometry" />
        </mxCell>
        <mxCell id="8xo9oSfGQhORBLVSTEod-59" value="" style="endArrow=none;dashed=1;html=1;dashPattern=1 3;strokeWidth=2;startSize=6;endSize=6;sourcePerimeterSpacing=1;targetPerimeterSpacing=1;entryX=-0.036;entryY=0.556;entryDx=0;entryDy=0;entryPerimeter=0;exitX=1;exitY=0.5;exitDx=0;exitDy=0;" edge="1" parent="8xo9oSfGQhORBLVSTEod-1" source="8xo9oSfGQhORBLVSTEod-41" target="8xo9oSfGQhORBLVSTEod-47">
          <mxGeometry width="50" height="50" relative="1" as="geometry">
            <mxPoint x="280" y="380" as="sourcePoint" />
            <mxPoint x="330" y="330" as="targetPoint" />
          </mxGeometry>
        </mxCell>
        <mxCell id="8xo9oSfGQhORBLVSTEod-61" value="" style="endArrow=none;dashed=1;html=1;dashPattern=1 3;strokeWidth=2;startSize=6;endSize=6;sourcePerimeterSpacing=1;targetPerimeterSpacing=1;entryX=0.25;entryY=1;entryDx=0;entryDy=0;exitX=1;exitY=0.5;exitDx=0;exitDy=0;" edge="1" parent="8xo9oSfGQhORBLVSTEod-1" source="8xo9oSfGQhORBLVSTEod-44" target="8xo9oSfGQhORBLVSTEod-47">
          <mxGeometry width="50" height="50" relative="1" as="geometry">
            <mxPoint x="280.0023809523809" y="470" as="sourcePoint" />
            <mxPoint x="357.1200000000001" y="366.67999999999995" as="targetPoint" />
          </mxGeometry>
        </mxCell>
        <mxCell id="8xo9oSfGQhORBLVSTEod-62" value="" style="endArrow=none;dashed=1;html=1;dashPattern=1 3;strokeWidth=2;startSize=6;endSize=6;sourcePerimeterSpacing=1;targetPerimeterSpacing=1;entryX=0.5;entryY=1;entryDx=0;entryDy=0;exitX=1;exitY=0.5;exitDx=0;exitDy=0;" edge="1" parent="8xo9oSfGQhORBLVSTEod-1" source="8xo9oSfGQhORBLVSTEod-45" target="8xo9oSfGQhORBLVSTEod-47">
          <mxGeometry width="50" height="50" relative="1" as="geometry">
            <mxPoint x="290.0023809523809" y="480" as="sourcePoint" />
            <mxPoint x="367.1200000000001" y="376.67999999999995" as="targetPoint" />
          </mxGeometry>
        </mxCell>
        <mxCell id="8xo9oSfGQhORBLVSTEod-64" value="" style="endArrow=none;dashed=1;html=1;dashPattern=1 3;strokeWidth=2;startSize=6;endSize=6;sourcePerimeterSpacing=1;targetPerimeterSpacing=1;entryX=0.25;entryY=0;entryDx=0;entryDy=0;exitX=1;exitY=1;exitDx=0;exitDy=0;" edge="1" parent="8xo9oSfGQhORBLVSTEod-1" source="8xo9oSfGQhORBLVSTEod-32" target="8xo9oSfGQhORBLVSTEod-47">
          <mxGeometry width="50" height="50" relative="1" as="geometry">
            <mxPoint x="300.0023809523809" y="490" as="sourcePoint" />
            <mxPoint x="377.1200000000001" y="386.67999999999995" as="targetPoint" />
          </mxGeometry>
        </mxCell>
        <mxCell id="8xo9oSfGQhORBLVSTEod-65" value="" style="endArrow=none;dashed=1;html=1;dashPattern=1 3;strokeWidth=2;startSize=6;endSize=6;sourcePerimeterSpacing=1;targetPerimeterSpacing=1;entryX=1;entryY=0.5;entryDx=0;entryDy=0;exitX=0.5;exitY=0;exitDx=0;exitDy=0;" edge="1" parent="8xo9oSfGQhORBLVSTEod-1" source="8xo9oSfGQhORBLVSTEod-47" target="8xo9oSfGQhORBLVSTEod-4">
          <mxGeometry width="50" height="50" relative="1" as="geometry">
            <mxPoint x="372.8823809523809" y="320" as="sourcePoint" />
            <mxPoint x="450.0000000000001" y="216.67999999999995" as="targetPoint" />
          </mxGeometry>
        </mxCell>
        <mxCell id="8xo9oSfGQhORBLVSTEod-69" value="Event clicked" style="rounded=0;whiteSpace=wrap;html=1;shadow=0;comic=0;labelBackgroundColor=none;strokeWidth=1;fontFamily=Verdana;fontSize=12;align=center;arcSize=50;" vertex="1" parent="8xo9oSfGQhORBLVSTEod-1">
          <mxGeometry x="350" y="720" width="80" height="30" as="geometry" />
        </mxCell>
        <mxCell id="8xo9oSfGQhORBLVSTEod-70" value="" style="endArrow=none;dashed=1;html=1;dashPattern=1 3;strokeWidth=2;startSize=6;endSize=6;sourcePerimeterSpacing=1;targetPerimeterSpacing=1;entryX=0;entryY=0.75;entryDx=0;entryDy=0;exitX=1;exitY=0;exitDx=0;exitDy=0;" edge="1" parent="8xo9oSfGQhORBLVSTEod-1" source="8xo9oSfGQhORBLVSTEod-54" target="8xo9oSfGQhORBLVSTEod-69">
          <mxGeometry width="50" height="50" relative="1" as="geometry">
            <mxPoint x="280.0023809523809" y="690" as="sourcePoint" />
            <mxPoint x="400" y="380" as="targetPoint" />
          </mxGeometry>
        </mxCell>
        <mxCell id="8xo9oSfGQhORBLVSTEod-71" value="" style="endArrow=none;dashed=1;html=1;dashPattern=1 3;strokeWidth=2;startSize=6;endSize=6;sourcePerimeterSpacing=1;targetPerimeterSpacing=1;entryX=0.5;entryY=1;entryDx=0;entryDy=0;exitX=0.75;exitY=0;exitDx=0;exitDy=0;" edge="1" parent="8xo9oSfGQhORBLVSTEod-1" source="8xo9oSfGQhORBLVSTEod-53" target="8xo9oSfGQhORBLVSTEod-69">
          <mxGeometry width="50" height="50" relative="1" as="geometry">
            <mxPoint x="260.0023809523809" y="780" as="sourcePoint" />
            <mxPoint x="360" y="752.5" as="targetPoint" />
          </mxGeometry>
        </mxCell>
        <mxCell id="8xo9oSfGQhORBLVSTEod-75" value="" style="ellipse;html=1;shape=endState;fillColor=#000000;strokeColor=#ff0000;" vertex="1" parent="8xo9oSfGQhORBLVSTEod-1">
          <mxGeometry x="215" y="910" width="30" height="30" as="geometry" />
        </mxCell>
        <mxCell id="8xo9oSfGQhORBLVSTEod-56" value="Yes" style="text;html=1;align=center;verticalAlign=middle;resizable=0;points=[];autosize=1;strokeColor=none;fillColor=none;" vertex="1" parent="1">
          <mxGeometry x="450" y="730" width="40" height="20" as="geometry" />
        </mxCell>
        <mxCell id="8xo9oSfGQhORBLVSTEod-77" style="edgeStyle=orthogonalEdgeStyle;rounded=0;orthogonalLoop=1;jettySize=auto;html=1;exitX=0.5;exitY=1;exitDx=0;exitDy=0;endArrow=classic;endFill=1;startSize=6;endSize=6;sourcePerimeterSpacing=1;targetPerimeterSpacing=1;" edge="1" parent="1" source="8xo9oSfGQhORBLVSTEod-54">
          <mxGeometry relative="1" as="geometry">
            <mxPoint x="399.95238095238096" y="980" as="targetPoint" />
          </mxGeometry>
        </mxCell>
      </root>
    </mxGraphModel>
  </diagram>
</mxfile>
